<svg width="68" height="68" viewBox="0 0 68 68" fill="none" xmlns="http://www.w3.org/2000/svg">
<g clip-path="url(#clip0_2_287)">
<path d="M54.3854 34.5107C53.9914 34 53.2618 33.8833 52.7511 34.2773C52.503 34.467 52.3425 34.7442 52.2987 35.0506L51.6567 39.5888C51.6421 39.6472 51.6275 39.7056 51.5983 39.764C52.7949 38.188 53.7434 36.4369 54.4584 34.5983L54.3854 34.5107ZM50.4893 40.5957C50.4309 40.5957 50.3726 40.5957 50.3288 40.5811L43.3974 39.5888C42.7554 39.5013 42.3176 38.903 42.4052 38.2609L43.0472 33.7227C43.1348 33.0807 42.697 32.497 42.055 32.4094C41.7485 32.3657 41.4421 32.4386 41.194 32.6283L37.5168 35.3863C37.006 35.7803 36.2764 35.6635 35.8824 35.1528L31.6798 29.5494C31.2859 29.0386 31.4026 28.309 31.9133 27.915L35.576 25.1571C36.0867 24.7631 36.2035 24.0335 35.8095 23.5227C35.6198 23.2747 35.3425 23.1142 35.0361 23.0704L30.4979 22.4283C29.8558 22.3408 29.418 21.7425 29.5056 21.115L30.4979 14.1837C30.5854 13.5416 31.1837 13.1039 31.8112 13.1914L36.3494 13.8335C36.8163 13.9064 37.2833 13.673 37.5168 13.279C37.7648 12.8704 37.7356 12.3597 37.4438 11.9803L34.7296 8.303C34.3356 7.79227 34.4524 7.06266 34.9631 6.66867L35.6198 6.17253C34.5545 6.11416 33.4747 6.14335 32.4095 6.26009C20.8816 7.57339 12.5932 17.9923 13.9211 29.5202C14.6361 35.7948 18.1382 41.4275 23.4644 44.8275C25.4052 46.0386 26.6017 48.1545 26.6309 50.4309V55.1588C26.6309 57.0996 28.1923 58.6609 30.1331 58.6609H39.4721C41.4129 58.6609 42.9743 57.0996 42.9743 55.1588V50.533C43.0035 48.1983 44.2292 46.024 46.2138 44.7837C48.0524 43.5871 49.7013 42.1133 51.0876 40.4206C50.8979 40.5373 50.7082 40.5957 50.4893 40.5957ZM35.97 55.1588H33.6352V51.6567H35.97V55.1588ZM33.6352 49.3219C33.6352 46.2283 31.7382 43.4704 28.8489 42.3614C20.4438 39.0781 16.2996 29.5931 19.5829 21.188C20.8524 17.9339 23.1434 15.176 26.091 13.3082L27.3314 15.2781C20.7794 19.3931 18.8095 28.0464 22.9391 34.5983C24.5296 37.1373 26.9082 39.0927 29.6953 40.1871C33.4747 41.6318 35.97 45.2652 35.97 49.3219H33.6352ZM30.1331 64.4979V65.6652C30.1331 66.9494 31.1837 68 32.4678 68H37.1374C38.4215 68 39.4721 66.9494 39.4721 65.6652V64.4979H30.1331ZM22.8369 45.8197C22.1511 45.3674 21.4798 44.8858 20.8378 44.3605C19.0721 47.7897 14.8695 49.1468 11.4404 47.3811C9.1056 46.1846 7.64637 43.7768 7.64637 41.1502C7.64637 37.6189 10.2876 34.6421 13.7751 34.2043C13.352 32.9202 13.0309 31.5923 12.8558 30.2498L12.6515 31.2275C12.3889 32.4824 11.1485 33.2996 9.87899 33.0369C9.57255 32.9785 9.2953 32.8472 9.03264 32.6721L6.61032 31.0086L4.47985 33.1245L6.15796 35.5614C6.88757 36.6266 6.62491 38.0712 5.55968 38.8155C5.31161 38.9906 5.01976 39.1073 4.71332 39.1803L1.80946 39.7931V42.5657L4.71332 43.1785C5.96826 43.4412 6.78543 44.6815 6.52277 45.9511C6.4644 46.2575 6.33307 46.5348 6.15796 46.7974L4.49444 49.176L6.62491 51.2918L9.04723 49.6283C10.1125 48.8987 11.5571 49.1614 12.3013 50.2266C12.4764 50.4747 12.5932 50.7665 12.6661 51.073L13.279 53.9914H16.0515L16.6644 51.0876C16.9271 49.8326 18.1674 49.0155 19.4369 49.2781C19.7434 49.3365 20.0206 49.4678 20.2833 49.6429L22.7056 51.3064L25.2155 48.7966C24.7631 47.5708 23.9314 46.5202 22.8369 45.8197ZM30.1331 59.8283H39.4721V62.1631H30.1331V59.8283ZM63.958 20.1227C62.0464 19.8455 60.7185 18.0798 60.9811 16.1536C61.1125 15.2343 61.6086 14.4026 62.3528 13.8481L65.0816 11.8052L62.2798 8.06953L59.5511 10.127C58.0043 11.2944 55.8155 10.9734 54.6481 9.42661C54.0936 8.6824 53.8455 7.7485 53.9768 6.82918L54.4584 3.44378L49.8326 2.78712L49.3511 6.17253C49.0738 8.08412 47.3082 9.41202 45.382 9.14936C44.4627 9.01803 43.6309 8.52189 43.0764 7.77768L41.0189 5.03433L37.2833 7.83605L39.3408 10.5648C40.5082 12.1116 40.1871 14.3004 38.6404 15.4678C37.8962 16.0223 36.9623 16.2704 36.0429 16.1391L32.6575 15.6575L32.0009 20.2833L35.3863 20.7648C37.2979 21.0421 38.6258 22.8077 38.3631 24.7339C38.2318 25.6532 37.7356 26.485 36.9914 27.0395L34.2627 29.097L37.0644 32.8326L39.7932 30.7751C41.3399 29.6077 43.5288 29.9288 44.6962 31.4755C45.2507 32.2197 45.4987 33.1536 45.3674 34.073L44.8859 37.4584L49.5116 38.115L49.9932 34.7296C50.2704 32.818 52.0361 31.4901 53.9622 31.7528C54.8816 31.8841 55.7133 32.3803 56.2678 33.1245L58.3253 35.8532L62.061 33.0515L60.0035 30.3082C58.8361 28.7614 59.1571 26.5725 60.7039 25.4052C61.4481 24.8506 62.382 24.6026 63.3013 24.7339L66.6867 25.2155L67.3434 20.5897L63.958 20.1227ZM49.6721 27.4481C45.8052 27.4481 42.6678 24.3107 42.6678 20.4438C42.6678 16.5768 45.8052 13.4395 49.6721 13.4395C53.5391 13.4395 56.6764 16.5768 56.6764 20.4438C56.6764 24.3107 53.5391 27.4481 49.6721 27.4481ZM56.9829 43.485H65.1545V45.8197H56.9829V43.485ZM55.0713 51.3794L56.5597 49.5845L63.564 55.4215L62.0756 57.2163L55.0713 51.3794ZM49.9786 52.824H52.3133V60.9957H49.9786V52.824ZM0.671265 20.1665L10.0103 17.8318L10.5794 20.0936L1.24036 22.4283L0.671265 20.1665ZM2.59744 8.24464L3.95453 6.34764L12.1262 12.1845L10.7691 14.0815L2.59744 8.24464ZM12.6077 0.583691L14.8695 0L17.2627 9.33906L15.0009 9.92275L12.6077 0.583691Z" fill="url(#paint0_linear_2_287)"/>
</g>
<defs>
<linearGradient id="paint0_linear_2_287" x1="0.665472" y1="33.9987" x2="67.3321" y2="33.9987" gradientUnits="userSpaceOnUse">
<stop offset="0.9999" stop-color="#00B6B6"/>
<stop offset="1" stop-color="#0C4C8A"/>
</linearGradient>
<clipPath id="clip0_2_287">
<rect width="68" height="68" fill="white"/>
</clipPath>
</defs>
</svg>
