<svg width="68" height="68" viewBox="0 0 68 68" fill="none" xmlns="http://www.w3.org/2000/svg">
<path d="M51.4888 12.3454C51.3146 12.2079 51.0929 12.1452 50.8725 12.1711C50.6521 12.1971 50.4511 12.3095 50.3136 12.4837C50.1761 12.6579 50.1134 12.8796 50.1393 13.1C50.1653 13.3204 50.2777 13.5215 50.4519 13.659C53.5392 16.0711 56.0346 19.1565 57.7478 22.6799C59.461 26.2033 60.3467 30.0715 60.3373 33.9893C60.3373 34.2111 60.4254 34.4238 60.5823 34.5806C60.7391 34.7374 60.9518 34.8255 61.1735 34.8255C61.3953 34.8255 61.608 34.7374 61.7648 34.5806C61.9217 34.4238 62.0098 34.2111 62.0098 33.9893C62.0198 29.8187 61.0772 25.7008 59.2539 21.9499C57.4306 18.1989 54.7747 14.9139 51.4888 12.3454Z" fill="#00B6B6"/>
<path d="M8.63569 33.9893C8.62639 30.0718 9.51182 26.2039 11.2245 22.6806C12.9371 19.1573 15.4317 16.0717 18.5181 13.659C18.6081 13.5924 18.6838 13.5085 18.7408 13.4121C18.7978 13.3158 18.8348 13.209 18.8497 13.098C18.8647 12.9871 18.8572 12.8743 18.8277 12.7663C18.7982 12.6583 18.7473 12.5573 18.6781 12.4694C18.6089 12.3814 18.5227 12.3082 18.4247 12.2542C18.3266 12.2002 18.2187 12.1664 18.1074 12.1548C17.9961 12.1432 17.8835 12.1541 17.7765 12.1869C17.6695 12.2196 17.5701 12.2735 17.4842 12.3454C14.1971 14.9128 11.5404 18.1976 9.71695 21.9488C7.89352 25.7 6.95164 29.8184 6.96329 33.9893C6.96329 34.2111 7.05139 34.4238 7.20821 34.5806C7.36502 34.7374 7.57772 34.8255 7.79949 34.8255C8.02126 34.8255 8.23396 34.7374 8.39077 34.5806C8.54759 34.4238 8.63569 34.2111 8.63569 33.9893Z" fill="#00B6B6"/>
<path d="M60.8391 38.3133C60.7313 38.2921 60.6203 38.2923 60.5126 38.314C60.4048 38.3357 60.3024 38.3784 60.2112 38.4396C60.12 38.5009 60.0418 38.5796 59.981 38.6711C59.9202 38.7627 59.878 38.8653 59.8569 38.9731C59.0144 43.2478 57.1057 47.2403 54.308 50.5802C51.5103 53.9202 47.9142 56.4992 43.8535 58.0781L44.0785 59.7779C48.4907 58.1364 52.4086 55.3916 55.4583 51.8053C58.508 48.219 60.5877 43.911 61.4989 39.2924C61.5201 39.1848 61.5198 39.074 61.4981 38.9665C61.4764 38.859 61.4337 38.7568 61.3724 38.6658C61.3111 38.5748 61.2324 38.4969 61.1409 38.4364C61.0494 38.3759 60.9468 38.334 60.8391 38.3133Z" fill="#00B6B6"/>
<path d="M25.1165 58.0781C21.0567 56.4974 17.462 53.9169 14.6659 50.5759C11.8698 47.2349 9.96292 43.2418 9.12222 38.967C9.10765 38.8543 9.07026 38.7458 9.01232 38.648C8.95439 38.5502 8.87713 38.4653 8.78527 38.3984C8.69341 38.3314 8.58887 38.2839 8.47803 38.2588C8.3672 38.2336 8.2524 38.2313 8.14065 38.252C8.0289 38.2727 7.92254 38.316 7.82806 38.3792C7.73359 38.4423 7.65299 38.5241 7.59118 38.6195C7.52937 38.7149 7.48765 38.8218 7.46858 38.9339C7.4495 39.0459 7.45346 39.1607 7.48022 39.2711C8.3895 43.8896 10.4678 48.1978 13.5165 51.7843C16.5653 55.3707 20.4827 58.1155 24.8945 59.7566L25.1165 58.0781Z" fill="#00B6B6"/>
<path d="M36.3155 59.7657C35.7074 59.8083 35.0992 59.8387 34.4911 59.8387C33.8829 59.8387 33.2748 59.8083 32.6666 59.7657L32.4386 61.432C33.1197 61.4827 33.8069 61.509 34.5002 61.5111C35.1935 61.5131 35.8787 61.4867 36.5557 61.432L36.3155 59.7657Z" fill="#00B6B6"/>
<path d="M22.5683 10.0526C22.9361 10.1621 23.2707 10.3615 23.542 10.6328C23.8134 10.9041 24.0127 11.2387 24.1222 11.6065C24.149 11.6852 24.1998 11.7535 24.2674 11.8019C24.335 11.8503 24.4161 11.8763 24.4992 11.8763C24.5824 11.8763 24.6634 11.8503 24.7311 11.8019C24.7987 11.7535 24.8494 11.6852 24.8763 11.6065C24.9852 11.2385 25.1844 10.9035 25.4558 10.6322C25.7272 10.3608 26.0621 10.1616 26.4301 10.0526C26.5088 10.0258 26.5771 9.97505 26.6255 9.90743C26.6739 9.83981 26.7 9.75874 26.7 9.67559C26.7 9.59244 26.6739 9.51137 26.6255 9.44375C26.5771 9.37613 26.5088 9.32536 26.4301 9.29854C26.0623 9.18911 25.7277 8.98972 25.4564 8.71842C25.1851 8.44712 24.9857 8.11246 24.8763 7.74472C24.8494 7.66601 24.7987 7.59767 24.7311 7.54927C24.6634 7.50088 24.5824 7.47485 24.4992 7.47485C24.4161 7.47485 24.335 7.50088 24.2674 7.54927C24.1998 7.59767 24.149 7.66601 24.1222 7.74472C24.0122 8.11221 23.8127 8.44661 23.5415 8.71784C23.2702 8.98906 22.9358 9.18862 22.5683 9.29854C22.4896 9.32536 22.4213 9.37613 22.3729 9.44375C22.3245 9.51137 22.2985 9.59244 22.2985 9.67559C22.2985 9.75874 22.3245 9.83981 22.3729 9.90743C22.4213 9.97505 22.4896 10.0258 22.5683 10.0526Z" fill="#00B6B6"/>
<path d="M42.6402 10.0527C43.0085 10.1611 43.3437 10.3602 43.6151 10.6316C43.8866 10.9031 44.0856 11.2382 44.1941 11.6065C44.2217 11.6848 44.2729 11.7527 44.3407 11.8007C44.4085 11.8487 44.4896 11.8745 44.5726 11.8745C44.6557 11.8745 44.7367 11.8487 44.8046 11.8007C44.8724 11.7527 44.9236 11.6848 44.9512 11.6065C45.0596 11.2382 45.2587 10.9031 45.5301 10.6316C45.8016 10.3602 46.1368 10.1611 46.505 10.0527C46.5823 10.0245 46.6491 9.97315 46.6963 9.9057C46.7435 9.83825 46.7688 9.75793 46.7688 9.67562C46.7688 9.59331 46.7435 9.51299 46.6963 9.44555C46.6491 9.3781 46.5823 9.32679 46.505 9.29857C46.137 9.18964 45.8021 8.99042 45.5307 8.71905C45.2594 8.44767 45.0601 8.11275 44.9512 7.74475C44.9236 7.6664 44.8724 7.59853 44.8046 7.55053C44.7367 7.50253 44.6557 7.47675 44.5726 7.47675C44.4896 7.47675 44.4085 7.50253 44.3407 7.55053C44.2729 7.59853 44.2217 7.6664 44.1941 7.74475C44.0851 8.11275 43.8859 8.44767 43.6145 8.71905C43.3432 8.99042 43.0082 9.18964 42.6402 9.29857C42.5629 9.32679 42.4961 9.3781 42.449 9.44555C42.4018 9.51299 42.3765 9.59331 42.3765 9.67562C42.3765 9.75793 42.4018 9.83825 42.449 9.9057C42.4961 9.97315 42.5629 10.0245 42.6402 10.0527Z" fill="#00B6B6"/>
<path d="M31.7149 7.66569C31.7935 7.72266 31.8521 7.80309 31.8821 7.89542C31.9122 7.98775 31.9122 8.08724 31.8821 8.17957L30.8787 11.269C30.8488 11.361 30.8489 11.4602 30.8788 11.5523C30.9086 11.6444 30.9669 11.7246 31.0451 11.7816C31.1234 11.8386 31.2176 11.8694 31.3144 11.8696C31.4112 11.8699 31.5056 11.8395 31.5841 11.7828L34.2144 9.87326C34.2923 9.81573 34.3866 9.78468 34.4835 9.78468C34.5803 9.78468 34.6746 9.81573 34.7526 9.87326L37.3828 11.7828C37.4613 11.8395 37.5557 11.8699 37.6525 11.8696C37.7493 11.8694 37.8436 11.8386 37.9218 11.7816C38.0001 11.7246 38.0583 11.6444 38.0882 11.5523C38.1181 11.4602 38.1181 11.361 38.0883 11.269L37.097 8.17957C37.0669 8.08724 37.0669 7.98775 37.097 7.89542C37.127 7.80309 37.1856 7.72266 37.2642 7.66569L39.8945 5.70441C39.9727 5.6429 40.0306 5.5591 40.0603 5.46408C40.09 5.36905 40.0902 5.26725 40.0609 5.1721C40.0316 5.07695 39.9741 4.99291 39.8961 4.93106C39.8181 4.86921 39.7232 4.83246 39.6238 4.82564H36.3611C36.2689 4.83525 36.1761 4.81426 36.0969 4.7659C36.0178 4.71755 35.9568 4.64451 35.9233 4.55805L34.9198 1.48995C34.8897 1.39798 34.8313 1.31787 34.7529 1.26108C34.6746 1.20429 34.5802 1.17371 34.4835 1.17371C34.3867 1.17371 34.2924 1.20429 34.214 1.26108C34.1357 1.31787 34.0772 1.39798 34.0471 1.48995L33.0437 4.53069C33.0103 4.61768 32.9496 4.69145 32.8706 4.74083C32.7916 4.79021 32.6986 4.81251 32.6058 4.80435H29.3553C29.2559 4.81117 29.161 4.84793 29.083 4.90978C29.005 4.97162 28.9475 5.05566 28.9182 5.15082C28.8889 5.24597 28.8891 5.34777 28.9188 5.44279C28.9485 5.53782 29.0064 5.62161 29.0846 5.68313L31.7149 7.66569Z" fill="#00B6B6"/>
<path d="M34.485 16.6055C33.4939 16.6055 32.525 16.8994 31.701 17.45C30.8769 18.0006 30.2346 18.7833 29.8553 19.6989C29.476 20.6146 29.3768 21.6222 29.5702 22.5942C29.7635 23.5663 30.2408 24.4592 30.9416 25.16C31.6424 25.8608 32.5353 26.3381 33.5074 26.5315C34.4794 26.7248 35.487 26.6256 36.4027 26.2463C37.3183 25.867 38.101 25.2247 38.6516 24.4006C39.2022 23.5766 39.4961 22.6077 39.4961 21.6166C39.4961 20.2876 38.9682 19.013 38.0284 18.0732C37.0886 17.1334 35.814 16.6055 34.485 16.6055ZM36.6378 22.1396C36.5546 22.649 36.2935 23.1123 35.9011 23.4475C35.5086 23.7827 35.0101 23.968 34.494 23.9705C33.9779 23.9731 33.4776 23.7927 33.0818 23.4614C32.6861 23.1302 32.4205 22.6694 32.3322 22.1609C32.3217 22.0958 32.3253 22.0292 32.3429 21.9656C32.3604 21.9021 32.3915 21.843 32.4339 21.7926C32.4763 21.7421 32.5291 21.7013 32.5887 21.673C32.6482 21.6448 32.7132 21.6297 32.7791 21.6288L36.1848 21.6105C36.2509 21.6099 36.3164 21.624 36.3763 21.6519C36.4363 21.6798 36.4893 21.7207 36.5314 21.7717C36.5744 21.8218 36.6062 21.8806 36.6245 21.9441C36.6429 22.0076 36.6474 22.0742 36.6378 22.1396Z" fill="#00B6B6"/>
<path d="M41.2598 47.8369L41.1077 46.6784H41.0925L40.1803 40.5422L40.1985 40.527L40.0374 39.3715L39.49 35.3547C39.4852 35.3211 39.491 35.2869 39.5067 35.2569C39.5224 35.2269 39.5472 35.2026 39.5775 35.1874C39.6078 35.1723 39.6421 35.1671 39.6755 35.1725C39.7089 35.178 39.7398 35.1938 39.7637 35.2178L41.8649 37.319C41.9704 37.4243 42.0541 37.5495 42.1113 37.6872C42.1684 37.8249 42.1978 37.9726 42.1978 38.1217C42.1978 38.2709 42.1684 38.4185 42.1113 38.5563C42.0541 38.694 41.9704 38.8191 41.8649 38.9245L41.6855 39.1039L42.5977 45.2371L46.353 41.8101C47.3284 40.8335 47.8763 39.5096 47.8763 38.1293C47.8763 36.749 47.3284 35.4252 46.353 34.4485L43.5281 31.6571C42.5279 30.6637 41.3417 29.8772 40.0373 29.3424C38.733 28.8076 37.336 28.5351 35.9263 28.5404H33.0346C31.6248 28.5347 30.2277 28.8071 28.9233 29.3419C27.6189 29.8767 26.4328 30.6635 25.4327 31.6571L22.6079 34.4637C21.6327 35.4398 21.0849 36.7632 21.0849 38.143C21.0849 39.5228 21.6327 40.8462 22.6079 41.8223L26.3693 45.2492L27.2815 39.1161L27.099 38.9336C26.9935 38.8283 26.9098 38.7031 26.8526 38.5654C26.7955 38.4276 26.7661 38.28 26.7661 38.1309C26.7661 37.9817 26.7955 37.8341 26.8526 37.6963C26.9098 37.5586 26.9935 37.4334 27.099 37.3281L29.1911 35.23C29.215 35.206 29.2458 35.1901 29.2793 35.1847C29.3127 35.1792 29.347 35.1844 29.3773 35.1996C29.4076 35.2147 29.4324 35.239 29.4481 35.2691C29.4638 35.2991 29.4696 35.3333 29.4647 35.3668L28.7593 40.5361V40.5513L27.8471 46.6662L25.2533 66.1117C25.2409 66.2047 25.2482 66.2992 25.2747 66.3891C25.3012 66.4791 25.3463 66.5624 25.4071 66.6338C25.4678 66.7052 25.5429 66.763 25.6275 66.8035C25.7121 66.844 25.8042 66.8663 25.898 66.8689H29.8509C30.0156 66.8725 30.1759 66.8153 30.301 66.7081C30.4261 66.601 30.5073 66.4514 30.529 66.2881L32.6788 50.68C32.7138 50.4195 32.7996 50.1685 32.9312 49.9411C33.0948 49.6771 33.3231 49.4592 33.5945 49.3081C33.8659 49.157 34.1713 49.0777 34.482 49.0777C34.7926 49.0777 35.098 49.157 35.3694 49.3081C35.6408 49.4592 35.8691 49.6771 36.0327 49.9411C36.1635 50.167 36.2502 50.4157 36.2881 50.6739L38.438 66.2881C38.4588 66.4457 38.5352 66.5907 38.6533 66.6972C38.7715 66.8036 38.9236 66.8645 39.0826 66.8689H43.0507C43.1445 66.8663 43.2366 66.844 43.3212 66.8035C43.4058 66.763 43.4809 66.7052 43.5416 66.6338C43.6024 66.5624 43.6475 66.4791 43.674 66.3891C43.7005 66.2992 43.7078 66.2047 43.6954 66.1117L41.2598 47.8369ZM36.2121 38.6964L34.5549 39.861L32.84 38.6964C32.7883 38.6599 32.7274 38.5991 32.7427 38.5383L34.1353 32.5815C34.141 32.5372 34.1289 32.4924 34.1019 32.4568L33.1319 31.1828C33.0589 31.0824 33.1319 30.976 33.2505 30.976H35.7378C35.8624 30.976 35.9324 31.0824 35.8594 31.1828L34.8985 32.4751C34.8852 32.4908 34.8757 32.5095 34.871 32.5296C34.8662 32.5497 34.8663 32.5706 34.8712 32.5906L36.2821 38.5414C36.2886 38.5713 36.2853 38.6025 36.2727 38.6304C36.2601 38.6583 36.2389 38.6815 36.2121 38.6964Z" fill="#00B6B6"/>
</svg>
