<svg width="68" height="68" viewBox="0 0 68 68" fill="none" xmlns="http://www.w3.org/2000/svg">
<path d="M21.7304 9.58375C21.6593 10.726 21.3455 11.84 20.8099 12.8515C20.2743 13.863 19.5293 14.7486 18.6245 15.4495C17.9078 16.0698 16.994 16.4155 16.0461 16.4248C15.0982 16.434 14.1778 16.1064 13.449 15.5002C11.1875 13.8388 9.8661 10.2317 10.548 7.58117C10.8637 6.18733 11.6924 4.96333 12.8692 4.15245C14.0461 3.34158 15.4849 3.00321 16.8998 3.2046C19.6252 3.55101 21.7196 6.1224 21.7304 9.58375Z" fill="#00B6B6"/>
<path d="M39.1795 26.0987C38.8887 25.9735 38.5743 25.9123 38.2578 25.9194L31.4349 26.2707L26.2696 20.0783C26.1538 19.9401 26.0287 19.81 25.8951 19.689C25.871 19.6689 25.8442 19.6502 25.8188 19.6314C25.499 19.3949 25.1372 19.221 24.7526 19.1191C24.7326 19.1137 24.7112 19.1084 24.6911 19.103C24.5277 19.0583 24.3614 19.0248 24.1935 19.0027C22.8477 18.8208 21.4979 18.6616 20.1508 18.4917C19.9298 18.4521 19.702 18.4819 19.4987 18.577C19.2953 18.6721 19.1264 18.8278 19.015 19.0228C18.409 19.9565 17.787 20.8809 17.1703 21.808C16.8145 22.3417 16.4559 22.8728 16.0626 23.4601C16.0573 23.4534 16.0546 23.448 16.0493 23.4413C16.0453 23.4479 16.0408 23.4542 16.0359 23.4601C15.6426 22.8728 15.2841 22.3417 14.9282 21.808C14.3115 20.8809 13.6895 19.9565 13.0835 19.0228C12.9722 18.8278 12.8032 18.6721 12.5999 18.577C12.3965 18.4819 12.1687 18.4521 11.9477 18.4917C11.4635 18.5532 10.9779 18.6121 10.4923 18.6723C9.62943 18.7793 8.76658 18.8863 7.90509 19.0027C7.61272 19.0409 7.32582 19.1132 7.05027 19.2181C7.04506 19.2203 7.03969 19.2221 7.03421 19.2235C6.27164 19.4829 5.62934 20.0106 5.2269 20.7083C5.15812 20.8256 5.0969 20.9472 5.04362 21.0722L1.47452 29.4465L1.34744 29.7448C1.11503 30.2896 1.09972 30.9027 1.30463 31.4585L1.66984 32.4564L4.55802 40.3545C4.75581 40.8888 5.14753 41.329 5.6552 41.5875C6.16288 41.8461 6.74929 41.904 7.29773 41.7497C7.87342 41.5856 8.36039 41.1996 8.65162 40.6766C8.94285 40.1536 9.01451 39.5364 8.85085 38.9605L8.15924 36.5339L6.59809 31.0491L7.93985 28.9167C7.94788 29.0692 7.95457 29.2177 7.95858 29.3662C7.97195 29.8545 7.98667 30.3428 8.00005 30.8311C8.01342 31.2872 8.02547 31.7421 8.0375 32.1982L9.87958 38.6676C10.0402 39.2329 10.0484 39.8308 9.90316 40.4003C9.75795 40.9699 9.46458 41.4908 9.05286 41.9103C8.83838 42.1301 8.59382 42.3183 8.32646 42.4694C8.4415 46.6138 8.55655 50.7577 8.67159 54.9011C8.71173 56.3526 8.77059 58.5866 8.82276 60.4661C8.85471 61.6278 9.3365 62.7317 10.1665 63.545C10.9966 64.3583 12.11 64.8175 13.2721 64.8259L16.0493 64.8459L18.8264 64.8259C19.9885 64.8175 21.1019 64.3583 21.932 63.545C22.762 62.7317 23.2438 61.6278 23.2758 60.4661C23.328 58.5866 23.3868 56.3526 23.4269 54.9011C23.6637 46.3904 23.9014 37.8787 24.14 29.3662C24.152 28.9422 24.1801 28.1141 24.2122 27.4345C24.2122 27.4345 27.7974 30.9943 28.786 31.7942C28.9886 31.9601 29.2116 32.0994 29.4495 32.2089C29.6089 32.2281 29.7699 32.2299 29.9297 32.2143L38.5173 30.3527C39.0087 30.3056 39.4703 30.0963 39.8295 29.7577C40.1886 29.4191 40.4248 28.9706 40.5007 28.4829C40.5766 27.9952 40.488 27.4961 40.2487 27.0643C40.0095 26.6326 39.6333 26.2928 39.1795 26.0987Z" fill="#00B6B6"/>
<path d="M51.8934 22.8779C51.2144 22.3783 50.4028 22.0905 49.5607 22.0509C48.7186 22.0112 47.8836 22.2214 47.1607 22.6551C46.4377 23.0887 45.8591 23.7264 45.4977 24.488C45.1362 25.2496 45.0079 26.1011 45.129 26.9353C45.2502 27.7696 45.6153 28.5494 46.1784 29.1768C46.7415 29.8041 47.4776 30.251 48.294 30.4611C49.1104 30.6713 49.9707 30.6354 50.7667 30.3579C51.5628 30.0804 52.259 29.5738 52.7679 28.9016C53.4467 27.9854 53.7357 26.838 53.5718 25.7096C53.408 24.5811 52.8047 23.5633 51.8934 22.8779ZM51.0409 27.6082C50.7866 27.9616 50.4328 28.2312 50.0246 28.3825C49.6164 28.5338 49.1723 28.56 48.7492 28.4577C48.326 28.3555 47.9429 28.1294 47.6489 27.8084C47.3548 27.4874 47.1631 27.086 47.0982 26.6555C47.0334 26.225 47.0984 25.785 47.2848 25.3916C47.4713 24.9982 47.7707 24.6693 48.145 24.4469C48.5193 24.2245 48.9513 24.1188 49.386 24.1431C49.8207 24.1675 50.2382 24.3209 50.5853 24.5837C51.0441 24.9263 51.3494 25.436 51.4347 26.0023C51.52 26.5686 51.3784 27.1456 51.0409 27.6082Z" fill="#00B6B6"/>
<path d="M48.7803 8.96047C49.4811 8.87766 50.18 8.77938 51.0186 8.66964C51.0897 9.39484 51.1388 10.073 51.227 10.746C51.2319 10.8975 51.2682 11.0464 51.3336 11.1831C51.399 11.3199 51.4921 11.4415 51.607 11.5404C51.7219 11.6393 51.8561 11.7133 52.0011 11.7576C52.146 11.8019 52.2986 11.8156 52.4492 11.7979C53.1053 11.7113 53.4473 11.1798 53.3521 10.4228C53.2695 9.76585 53.2047 9.10663 53.1328 8.4554C53.763 8.35518 54.4311 8.2469 55.1 8.1431C55.2518 8.13889 55.4011 8.10271 55.538 8.03693C55.6749 7.97114 55.7964 7.87723 55.8946 7.76131C55.9928 7.64539 56.0654 7.51007 56.1078 7.36419C56.1501 7.21831 56.1612 7.06513 56.1404 6.91467C56.1195 6.7642 56.0672 6.61982 55.9868 6.49095C55.9063 6.36208 55.7996 6.25161 55.6736 6.16676C55.5477 6.0819 55.4052 6.02457 55.2555 5.99849C55.1059 5.97242 54.9524 5.97819 54.8051 6.01544C54.1328 6.11581 53.4671 6.26057 52.7984 6.38581L52.5716 6.25055C52.5068 5.51321 52.4757 4.77085 52.3668 4.04008C52.3466 3.90076 52.2983 3.76702 52.2247 3.64697C52.1512 3.52692 52.054 3.42308 51.9391 3.34175C51.8242 3.26042 51.694 3.20331 51.5563 3.17389C51.4186 3.14446 51.2764 3.14334 51.1383 3.17059C50.8655 3.21291 50.6202 3.36069 50.4553 3.58211C50.2903 3.80352 50.219 4.08086 50.2565 4.35438C50.2742 4.56502 50.3161 4.7736 50.3464 4.98319C50.4213 5.4998 50.4959 6.01643 50.5676 6.51201C49.815 6.62643 49.1269 6.72429 48.4411 6.83713C48.2781 6.85134 48.1207 6.90314 47.981 6.98847C47.8414 7.0738 47.7235 7.19033 47.6365 7.32892C47.5495 7.4675 47.4958 7.62437 47.4797 7.78719C47.4635 7.95002 47.4853 8.11437 47.5434 8.26734C47.634 8.51072 47.8081 8.71401 48.0346 8.84096C48.2611 8.96791 48.5254 9.01026 48.7803 8.96047Z" fill="#00B6B6"/>
<path d="M66.7535 13.5977C66.6981 13.4657 66.6172 13.346 66.5154 13.2454C66.4137 13.1447 66.2932 13.0651 66.1607 13.011L60.531 10.714C60.3985 10.66 60.2566 10.6325 60.1135 10.6333C59.9704 10.6341 59.8289 10.663 59.6969 10.7185C59.565 10.7739 59.4453 10.8548 59.3447 10.9566C59.244 11.0583 59.1644 11.1788 59.1103 11.3113C59.0563 11.4438 59.0288 11.5857 59.0296 11.7288C59.0303 11.8719 59.0593 12.0135 59.1147 12.1454C59.1702 12.2773 59.2511 12.397 59.3528 12.4977C59.4546 12.5983 59.5751 12.6779 59.7076 12.732L62.7973 13.9927C62.7784 14.0015 62.7593 14.0097 62.7407 14.0197C58.1601 16.5019 54.0692 15.9217 48.8899 15.187C48.6534 15.1534 48.4154 15.1198 48.1759 15.086C42.4826 14.286 38.038 15.8146 35.6609 19.3901C35.5814 19.5093 35.5262 19.6429 35.4985 19.7834C35.4707 19.9239 35.471 20.0685 35.4991 20.2089C35.5273 20.3494 35.5829 20.4828 35.6627 20.6018C35.7425 20.7207 35.845 20.8227 35.9642 20.902C36.0835 20.9813 36.2172 21.0363 36.3578 21.0639C36.4983 21.0914 36.6429 21.091 36.7833 21.0627C36.9237 21.0343 37.0571 20.9786 37.1759 20.8986C37.2947 20.8187 37.3966 20.7161 37.4758 20.5967C40.0223 16.7665 45.0828 16.8523 47.8727 17.2443C48.1113 17.2779 48.3483 17.3114 48.5837 17.3449C53.9402 18.1047 58.5661 18.7608 63.7792 15.936L63.7939 15.927L62.443 19.238C62.3886 19.3705 62.3608 19.5125 62.3613 19.6559C62.3619 19.7992 62.3907 19.941 62.4461 20.0731C62.5015 20.2053 62.5824 20.3253 62.6842 20.4261C62.786 20.527 62.9067 20.6067 63.0394 20.6609C63.1721 20.715 63.3142 20.7425 63.4575 20.7416C63.6008 20.7408 63.7426 20.7117 63.8746 20.656C64.0067 20.6003 64.1264 20.5191 64.227 20.4171C64.3277 20.315 64.4072 20.1941 64.461 20.0613L66.758 14.4317C66.8121 14.2992 66.8395 14.1574 66.8387 14.0142C66.838 13.8711 66.809 13.7296 66.7535 13.5977ZM64.28 14.5976L64.3283 14.6173L64.3058 14.6725C64.2984 14.6473 64.2893 14.6224 64.28 14.5976Z" fill="#00B6B6"/>
</svg>
