<svg width="68" height="68" viewBox="0 0 68 68" fill="none" xmlns="http://www.w3.org/2000/svg">
<path d="M50.0671 28.5201C46.8185 28.5201 43.6428 29.4834 40.9417 31.2882C38.2405 33.093 36.1352 35.6583 34.892 38.6596C33.6488 41.6609 33.3235 44.9635 33.9572 48.1497C34.591 51.3359 36.1553 54.2626 38.4524 56.5598C40.7495 58.8569 43.6762 60.4213 46.8624 61.0551C50.0486 61.6889 53.3512 61.3636 56.3525 60.1205C59.3539 58.8773 61.9191 56.7721 63.724 54.0709C65.5289 51.3698 66.4922 48.1942 66.4922 44.9456C66.4874 40.5908 64.7553 36.4158 61.6761 33.3365C58.5968 30.2572 54.4219 28.5251 50.0671 28.5201ZM50.0671 57.2813C47.6273 57.2813 45.2423 56.5578 43.2136 55.2024C41.185 53.8469 39.6039 51.9203 38.6702 49.6662C37.7365 47.4121 37.4922 44.9318 37.9681 42.5389C38.4441 40.1459 39.619 37.9479 41.3442 36.2227C43.0694 34.4975 45.2675 33.3226 47.6604 32.8466C50.0533 32.3706 52.5337 32.6149 54.7877 33.5486C57.0418 34.4823 58.9684 36.0635 60.3239 38.0921C61.6794 40.1207 62.4028 42.5058 62.4028 44.9456C62.3991 48.2161 61.0983 51.3516 58.7857 53.6641C56.4731 55.9767 53.3376 57.2776 50.0671 57.2813Z" fill="#00B6B6"/>
<path d="M49.0288 50.7362C48.3073 50.6941 47.5943 50.5587 46.9076 50.3334C46.4964 50.191 46.0931 50.0267 45.6994 49.8412L46.4691 47.7827C46.9507 48.0096 47.4507 48.1953 47.9637 48.3376C48.5604 48.5072 49.1781 48.5916 49.7985 48.5881C50.3148 48.636 50.8339 48.5335 51.2932 48.2928C51.4242 48.1984 51.5296 48.0729 51.5999 47.9276C51.6702 47.7823 51.7032 47.6217 51.6959 47.4605C51.7018 47.2548 51.6457 47.0521 51.5349 46.8787C51.4113 46.7023 51.2529 46.553 51.0695 46.4401C50.8254 46.2882 50.5677 46.1593 50.2997 46.0552C49.9893 45.93 49.6313 45.7958 49.2257 45.6525C48.8319 45.5093 48.447 45.3511 48.0711 45.1781C47.705 45.0113 47.3621 44.7977 47.0509 44.5427C46.7199 44.2741 46.4561 43.932 46.2805 43.5436C46.105 43.1551 46.0224 42.7311 46.0394 42.3052C46.0381 41.9198 46.0955 41.5365 46.2095 41.1684C46.3215 40.807 46.5006 40.47 46.7376 40.175C46.9941 39.862 47.3106 39.6034 47.6684 39.4143C48.0946 39.1905 48.5539 39.0364 49.0288 38.9578V37.0246H51.2842V38.8862C51.8246 38.9324 52.3604 39.0222 52.8863 39.1547C53.2503 39.2457 53.6064 39.3654 53.9514 39.5128L53.3965 41.6607C52.9533 41.4782 52.4951 41.3344 52.0271 41.2311C51.4896 41.1099 50.9401 41.0498 50.3892 41.0522C49.9577 41.0161 49.5257 41.1163 49.1541 41.3385C49.0351 41.4238 48.9386 41.5369 48.8731 41.6679C48.8076 41.7989 48.775 41.944 48.7782 42.0904C48.7734 42.2618 48.8135 42.4315 48.8946 42.5826C48.985 42.7331 49.111 42.8592 49.2615 42.9496C49.4578 43.072 49.6644 43.177 49.8791 43.2632C50.1235 43.365 50.4189 43.4756 50.7652 43.5951C51.2636 43.7751 51.7508 43.9847 52.2241 44.223C52.6438 44.4316 53.0348 44.6934 53.3876 45.002C53.7116 45.2889 53.9735 45.639 54.1572 46.0308C54.3503 46.4639 54.4451 46.9344 54.4347 47.4085C54.4343 47.7693 54.3799 48.1281 54.2736 48.4729C54.1627 48.8311 53.98 49.1628 53.7366 49.4479C53.4633 49.7641 53.1322 50.0253 52.761 50.2174C52.2977 50.4526 51.7987 50.6097 51.2842 50.6825V52.8663H49.0288V50.7362Z" fill="#00B6B6"/>
<path d="M48.846 18.2809L48.8397 26.0175C46.2527 26.1856 43.7278 26.8827 41.4211 28.0658C39.1144 29.2488 37.075 30.8927 35.429 32.8955C32.0321 33.4014 28.6018 33.6499 25.1674 33.6388C18.6118 33.6388 12.4666 32.795 7.86653 31.2603C3.17858 29.6983 1.50775 27.8956 1.50775 26.7293V18.2809L2.46042 18.8504C7.11907 21.6435 15.8208 23.3793 25.1674 23.3793C34.5245 23.3793 43.2346 21.6435 47.8954 18.8525L48.846 18.2809Z" fill="#00B6B6"/>
<path d="M31.1012 44.9452C31.1013 45.7172 31.1481 46.4884 31.2415 47.2546C29.2817 47.4201 27.2445 47.5038 25.1674 47.5038C18.6118 47.5038 12.4666 46.66 7.86656 45.1274C3.17858 43.5654 1.50775 41.7606 1.50775 40.5943V32.1459L2.46042 32.7154C7.11907 35.5106 15.8208 37.2443 25.1674 37.2443C27.7579 37.2464 30.3467 37.1108 32.9228 36.8381C31.7197 39.3712 31.0973 42.1409 31.1012 44.9452Z" fill="#00B6B6"/>
<path d="M38.6011 60.0434C34.1824 60.9572 29.6795 61.4021 25.1674 61.3709C18.6118 61.3709 12.4666 60.5271 7.86655 58.9923C3.17859 57.4304 1.50775 55.6276 1.50775 54.4614V46.0109L2.46042 46.5825C7.11907 49.3756 15.8208 51.1114 25.1674 51.1114C27.5125 51.1114 29.8156 51.0025 32.0266 50.7952C33.226 54.4751 35.5196 57.7015 38.6011 60.0434Z" fill="#00B6B6"/>
<path d="M7.86598 18.0702C12.4671 19.6036 18.6118 20.448 25.1682 20.448C31.7245 20.448 37.8693 19.6036 42.4704 18.0702C47.1577 16.5077 48.8278 14.7048 48.8278 13.5386C48.8278 12.3724 47.1577 10.5695 42.4704 9.00703C37.8693 7.4736 31.7245 6.62915 25.1682 6.62915C18.6118 6.62915 12.4671 7.47361 7.86598 9.00703C3.1786 10.5695 1.50848 12.3724 1.50848 13.5386C1.50848 14.7048 3.1786 16.5077 7.86598 18.0702Z" fill="#00B6B6"/>
</svg>
