<svg width="84" height="64" viewBox="0 0 84 64" fill="none" xmlns="http://www.w3.org/2000/svg">
<g clip-path="url(#clip0_2_231)">
<path fill-rule="evenodd" clip-rule="evenodd" d="M67.008 0.72301C70.6162 0.72301 73.5424 3.64915 73.5424 7.25738C73.5424 10.8656 70.6162 13.7917 67.008 13.7917C65.7188 13.7917 64.5116 13.4166 63.4953 12.7686C63.4543 12.8232 63.4066 12.8778 63.352 12.9255L58.5024 17.5978C61.7355 21.2128 63.7885 25.9056 64.0477 31.069H70.8277C71.3392 27.9723 74.0335 25.6123 77.2734 25.6123C80.8816 25.6123 83.8077 28.5384 83.8077 32.1466C83.8077 35.7549 80.8816 38.681 77.2734 38.681C74.2108 38.681 71.6393 36.5734 70.93 33.7223C70.8959 33.7223 70.8618 33.7291 70.8277 33.7291H64.0136C63.6521 38.8243 61.5513 43.4351 58.2978 46.9683L63.4339 51.7429C63.4816 51.7907 63.5294 51.8384 63.5703 51.893C64.5661 51.2791 65.7393 50.9244 67.0012 50.9244C70.6094 50.9244 73.5355 53.8506 73.5355 57.4588C73.5355 61.067 70.6094 63.9932 67.0012 63.9932C63.3929 63.9932 60.4668 61.067 60.4668 57.4588C60.4668 56.0673 60.9033 54.7782 61.6468 53.7142L61.6263 53.6937L56.3811 48.8236C52.5683 52.0703 47.6231 54.0279 42.2279 54.0279C36.6484 54.0279 31.5601 51.9407 27.6995 48.503L22.4065 53.6596L22.3997 53.6664C23.1227 54.7168 23.5387 55.9855 23.5387 57.3565C23.5387 60.9647 20.6126 63.8909 17.0044 63.8909C13.3961 63.8909 10.47 60.9647 10.47 57.3565C10.47 53.7483 13.3961 50.8221 17.0044 50.8221C18.2799 50.8221 19.4735 51.1904 20.483 51.8248C20.5035 51.7975 20.5239 51.777 20.5512 51.7566L25.8237 46.6205C22.7202 43.0941 20.7354 38.5651 20.4216 33.5722L12.9869 33.6472H12.946C12.3457 36.6416 9.70606 38.8993 6.53437 38.8993C2.92614 38.8993 0 35.9731 0 32.3649C0 28.7567 2.92614 25.8305 6.53437 25.8305C9.67196 25.8305 12.298 28.0405 12.9255 30.9939H12.9596L20.408 30.9189C20.6944 25.8783 22.693 21.3015 25.8237 17.741L20.2784 12.4412C20.2374 12.4003 20.1965 12.3594 20.1624 12.3116C19.2552 12.7959 18.2117 13.0619 17.1135 13.0619C13.5053 13.0619 10.5791 10.1358 10.5791 6.52755C10.5791 2.92614 13.5053 0 17.1135 0C20.7217 0 23.6479 2.92614 23.6479 6.53437C23.6479 8.07588 23.1158 9.49462 22.2155 10.6132L27.6995 15.8516C31.5601 12.4139 36.6484 10.3268 42.221 10.3268C47.7323 10.3268 52.7661 12.3662 56.613 15.7357L61.5104 11.0157C61.5377 10.9884 61.5718 10.9611 61.6059 10.9338C60.8897 9.88341 60.4736 8.62155 60.4736 7.25738C60.4736 3.64915 63.3998 0.72301 67.008 0.72301ZM39.1585 34.4316L40.9796 39.786L41.8936 36.6075L41.4435 36.1164C41.2388 35.8231 41.1979 35.5639 41.307 35.3388C41.5526 34.8545 42.0505 34.95 42.5212 34.95C43.0123 34.95 43.6193 34.8545 43.7762 35.4752C43.8308 35.6798 43.7625 35.8981 43.6193 36.1164L43.1691 36.6075L44.0831 39.786L45.7338 34.4316C46.9206 35.5025 50.447 35.7139 51.7566 36.4506C52.1726 36.6825 52.5478 36.9758 52.8479 37.3714C53.3049 37.9716 53.5846 38.7629 53.6596 39.7587L53.9324 42.412C53.8642 43.1214 53.4618 43.5306 52.6774 43.5852H42.5416H32.2217C31.4305 43.5238 31.028 43.1146 30.9666 42.412L31.2395 39.7587C31.3145 38.756 31.5942 37.9716 32.0512 37.3714C32.3513 36.9758 32.7264 36.6825 33.1425 36.4506C34.4521 35.7139 37.9716 35.5025 39.1585 34.4316ZM38.6674 26.3353C38.6878 26.3762 38.6947 26.4171 38.6947 26.4649C38.6947 26.4853 38.6947 26.5058 38.6878 26.5331L38.7219 26.7855C38.6333 26.8059 38.5514 26.8059 38.4696 26.8059C38.4355 26.8196 38.3945 26.8264 38.3604 26.8264C38.1353 26.8332 37.9716 26.8741 37.8625 26.9492C37.8079 26.9901 37.7602 27.0378 37.7397 27.0924C37.7056 27.1606 37.692 27.2425 37.6988 27.3379C37.7056 27.6381 37.8693 28.0269 38.1763 28.4839L38.1831 28.4907L39.1994 30.1072C39.6087 30.7552 40.0315 31.41 40.5567 31.8943C41.0547 32.3513 41.6685 32.665 42.4666 32.665C43.3397 32.665 43.974 32.3444 44.4924 31.8602C45.038 31.3554 45.4678 30.6529 45.8906 29.9503L47.0366 28.0678C47.2685 27.5426 47.3367 27.222 47.2616 27.0719C47.2139 26.9696 47.0093 26.9492 46.6682 26.9764C46.5659 26.9833 46.4636 26.9492 46.3954 26.881C46.3681 26.881 46.3408 26.881 46.3135 26.8741L46.3272 26.7923C46.3067 26.7514 46.2931 26.7104 46.2863 26.6627C46.2726 26.5467 46.3272 26.4376 46.409 26.3626L46.6478 25.1553C44.5538 25.128 43.1214 24.7665 41.423 23.682C40.8637 23.3273 40.7 22.918 40.1407 22.959C39.7178 23.0408 39.3631 23.2318 39.0834 23.5319C38.8106 23.8252 38.6128 24.2208 38.4764 24.7256L38.6674 26.3353ZM47.3367 26.3421C47.5822 26.4171 47.7596 26.5536 47.8687 26.7718C48.0392 27.1197 47.971 27.6381 47.6504 28.3747C47.6436 28.3884 47.6368 28.402 47.63 28.4156L46.4704 30.3255C46.0202 31.0621 45.5633 31.8056 44.9562 32.3786C44.3219 32.9788 43.5306 33.3744 42.4598 33.3676C41.4571 33.3676 40.7 32.9788 40.0793 32.4127C39.4859 31.867 39.0289 31.1713 38.5992 30.4892L37.5829 28.8726C37.2009 28.3065 37.0099 27.7881 36.9963 27.3652C36.9894 27.1606 37.0235 26.9696 37.0986 26.8059C37.1804 26.6354 37.3032 26.4853 37.4669 26.3762C37.5488 26.3216 37.6374 26.2739 37.7397 26.2398C37.6784 25.3735 37.6579 24.2959 37.6988 23.3955C37.7193 23.1772 37.7602 22.959 37.8216 22.7339C38.0808 21.8062 38.7356 21.056 39.5404 20.5444C39.8269 20.3602 40.1339 20.2102 40.4681 20.0942C42.4257 19.3848 45.0108 19.7736 46.4022 21.2742C46.9683 21.8881 47.323 22.693 47.3981 23.7706L47.3367 26.3421ZM55.7809 18.6004C55.7399 18.5663 55.7058 18.5322 55.6717 18.4981C55.6513 18.4777 55.6376 18.4572 55.6172 18.4367C52.159 15.0672 47.439 12.9937 42.2347 12.9937C37.0167 12.9937 32.2899 15.0741 28.8317 18.4504C28.7908 18.5118 28.743 18.5663 28.6953 18.6209C28.6271 18.6891 28.5589 18.7505 28.477 18.8051C25.1212 22.2632 23.0476 26.9764 23.0476 32.1739C23.0476 37.4737 25.1962 42.2688 28.668 45.7406C32.1398 49.2124 36.9349 51.361 42.2347 51.361C47.5345 51.361 52.3295 49.2124 55.8013 45.7406C59.2731 42.2688 61.4217 37.4737 61.4217 32.1739C61.4217 26.8741 59.2731 22.0791 55.8013 18.6073L55.7809 18.6004Z" fill="#00B6B6"/>
</g>
<defs>
<clipPath id="clip0_2_231">
<rect width="83.8146" height="64" fill="white"/>
</clipPath>
</defs>
</svg>
