<svg width="64" height="64" viewBox="0 0 64 64" fill="none" xmlns="http://www.w3.org/2000/svg">
<path d="M32.0019 2C31.7021 2 31.4559 2.13196 31.248 2.33984L24.25 10.3418C24.0398 10.5882 23.9941 10.8643 24.0137 11.0859C24.0336 11.3124 24.1299 11.5252 24.2871 11.6895C24.5005 11.9399 24.8351 12.0039 25.0058 12.0039H28.0039L28 23.5117C28 23.8285 28.1554 24.059 28.3066 24.2148C28.6568 24.5338 29.0366 24.5508 29.3457 24.4492C30.1768 24.1565 31.0673 23.998 32.0019 23.998C32.9102 23.998 33.8404 24.1801 34.6738 24.4707C35.0305 24.6082 35.4436 24.5017 35.7109 24.2344C35.9558 23.9971 36.0058 23.6958 36.0058 23.5254V12.0039H39.0019C39.4962 12.0107 39.8137 11.6448 39.9101 11.418C40.1199 10.9711 39.9436 10.5411 39.7558 10.3418L32.7578 2.33984C32.5 2.05495 32.1378 2 32.0019 2ZM10.9707 9C10.7394 9.00858 10.5169 9.09694 10.3437 9.25L2.34178 16.2461C1.88591 16.6445 1.88591 17.3535 2.34178 17.752L10.3437 24.75C10.9909 25.3217 12.0097 24.8596 12.0058 23.9961V21H15.998C17.1232 20.9998 17.9961 21.8748 17.9961 23V31.998C17.9983 32.5511 18.4489 32.9974 19.0019 32.9941C20.3345 32.9942 21.6777 32.9961 23.0039 32.9961C23.4073 32.9942 23.7702 32.7501 23.9238 32.377C23.9734 32.2574 23.9992 32.1304 24 32C24.0004 30.0918 24.6618 28.3462 25.7715 26.9727C25.9325 26.8116 26 26.5096 26 26.3066V21C26 16.5857 22.4124 12.9978 17.998 12.998H12.0078V10.002C12.0083 9.60716 11.7764 9.24905 11.416 9.08789C11.2763 9.02486 11.1243 8.99481 10.9707 9ZM53.0312 9C52.878 8.99478 52.7256 9.02485 52.5859 9.08789C52.2263 9.24964 51.9953 9.60762 51.9961 10.002V12.998H45.9961C41.5817 12.9978 38.0019 16.5857 38.0019 21V25.9961C38.0019 26.3778 38.0036 26.7536 38.2304 26.9805C39.3383 28.3535 40.0015 30.0946 40.0019 32C40.0032 32.1281 40.0299 32.2546 40.0801 32.377C40.2359 32.7525 40.5975 32.9949 41 32.9961C42.3299 32.992 43.6677 32.9941 45 32.9941C45.5492 32.9919 45.9939 32.5472 45.9961 31.998V23C45.9961 21.8748 46.869 20.9998 47.9941 21H51.9961V23.9961C51.9938 24.8575 53.0091 25.3187 53.6562 24.75L61.6582 17.752C62.1141 17.3535 62.1141 16.6445 61.6582 16.2461L53.6562 9.25C53.4831 9.09694 53.2622 9.00861 53.0312 9ZM32 25.9629C28.6747 25.9629 25.998 28.6464 25.998 31.9805C25.998 35.3146 28.6747 37.9961 32 37.9961C35.3253 37.9961 38.0019 35.3146 38.0019 31.9805C38.0019 28.6464 35.3253 25.9629 32 25.9629ZM11 35C9.06699 35 7.49998 36.567 7.49998 38.5C7.49998 40.433 9.06699 42 11 42C12.933 42 14.5 40.433 14.5 38.5C14.5 36.567 12.933 35 11 35ZM53 35C51.067 35 49.5 36.567 49.5 38.5C49.5 40.433 51.067 42 53 42C54.933 42 56.5 40.433 56.5 38.5C56.5 36.567 54.933 35 53 35ZM27.6836 38.668C22.6205 40.4441 19 45.254 19 50.9688V59.9902C19 60.7888 19.2256 61.3213 19.584 61.625C19.9411 61.9278 20.552 62.1257 21.6914 61.9062L39.4492 57.1113C40.5855 56.8046 41.2348 55.6772 40.9316 54.5371C40.6285 53.3971 39.5161 52.7674 38.3554 53.0645L23.2226 56.5762C22.6875 56.6985 22.154 56.3674 22.0273 55.832C21.9007 55.2923 22.2348 54.753 22.7734 54.627L23.0019 54.5742V50.9707C23.003 50.4193 23.4481 49.9709 23.998 49.9688C24.551 49.9666 25.0009 50.4163 25.0019 50.9707V54.1074L37.8613 51.1172C38.2593 51.0147 38.6051 51.2556 38.998 51.2715V50.9707C38.9991 50.4163 39.4489 49.9666 40.0019 49.9688C40.5519 49.971 40.9969 50.4193 40.998 50.9707V51.6074C41.8736 52.1338 42.5764 52.9555 42.8594 54.0195C43.4391 56.1993 42.1375 58.4642 39.9648 59.0508L35.8457 60.1602L42.3125 61.9063C43.448 62.1257 44.0587 61.9266 44.416 61.625C44.7747 61.3223 45 60.8009 45 60.0117V50.9707C45 45.2558 41.3784 40.446 36.3144 38.6699C35.0684 39.4738 33.586 39.9414 32 39.9414C30.4125 39.9414 28.9296 39.4732 27.6836 38.668ZM8.21873 43.1426C5.7405 44.2248 4.00389 46.6864 4.00389 49.6191V50.9648C4.00389 52.6687 5.32516 54 6.99998 54H15.0019C15.8041 54 16.4696 53.6269 17 53.1133V50.9961C17 49.6248 17.1928 48.2994 17.5351 47.0371C16.8979 45.4011 15.5395 43.9161 13.7851 43.1445C12.9876 43.684 12.0295 44 11.0019 44C9.97345 44 9.01546 43.6829 8.21873 43.1426ZM55.7851 43.1426C54.9884 43.6829 54.0304 44 53.0019 44C51.9744 44 51.0163 43.684 50.2187 43.1445C48.4644 43.9161 47.106 45.4011 46.4687 47.0371C46.8111 48.2994 47.0039 49.6248 47.0039 50.9961V53.1133C47.5342 53.6269 48.1997 54 49.0019 54H57.0039C58.6787 54 60 52.6687 60 50.9648V49.6191C60 46.6864 58.2634 44.2248 55.7851 43.1426ZM36.0019 45H38.998C39.5533 44.9978 40.0041 45.4491 40.0019 46.0059C39.9997 46.5595 39.5503 47.0061 38.998 47.0039H36.0019C35.4497 47.0061 35.0002 46.5595 34.998 46.0059C34.9958 45.4491 35.4466 44.9978 36.0019 45Z" fill="#00B6B6"/>
</svg>
