<svg width="68" height="58" viewBox="0 0 68 58" fill="none" xmlns="http://www.w3.org/2000/svg">
<g clip-path="url(#clip0_2_277)">
<path fill-rule="evenodd" clip-rule="evenodd" d="M47.9453 30.7406C53.4293 26.5625 61.2597 27.6139 65.4433 33.098C69.6214 38.582 68.5699 46.4124 63.0859 50.596C57.6018 54.7741 49.7714 53.7227 45.5878 48.2386C44.5087 46.8219 43.7783 45.2503 43.3854 43.6234L35.4996 44.6029C34.7249 44.708 34.0166 44.1657 33.9114 43.391C33.8063 42.6162 34.3486 41.9079 35.1233 41.8027L43.0367 40.8232C42.9869 37.0049 44.6858 33.2253 47.9453 30.7406ZM35.5052 1.24512C41.4264 -1.68783 48.6093 0.736002 51.5423 6.65723C54.4752 12.5785 52.0514 19.7614 46.1302 22.6943C41.5315 24.9688 36.1803 24.0225 32.6442 20.7132L26.9886 25.6992C26.4075 26.2194 25.5166 26.1696 24.9964 25.5885C24.4762 25.0075 24.526 24.1165 25.1071 23.5964L30.8235 18.555C30.5579 18.151 30.3144 17.7249 30.0931 17.2822C27.1601 11.361 29.5839 4.17806 35.5052 1.24512ZM2.44592 40.8896C1.19527 41.4596 0.824504 42.8763 1.05139 44.387C1.15654 45.0788 1.38342 45.776 1.69885 46.4456C2.01982 47.1152 2.42932 47.7295 2.9163 48.2386C4.02861 49.4118 5.51721 50.0094 7.05562 49.2347C7.17737 49.1794 7.30465 49.1683 7.41532 49.207C7.44299 49.196 7.4596 49.1794 7.49833 49.1683C7.89124 48.9857 8.2454 48.8197 8.56637 48.6647C8.9316 48.4987 9.2747 48.3493 9.6012 48.2054C9.85575 48.1003 10.149 48.222 10.2487 48.4655C10.2597 48.4821 10.2653 48.5042 10.2653 48.5208L10.4977 49.1406C11.0953 50.7454 11.6709 52.3005 12.3349 53.5234C12.346 53.54 12.429 53.7171 12.5231 53.8831C12.927 54.6579 13.3698 55.4935 13.8457 55.9528C14.2662 56.3512 14.7809 56.4176 15.4782 55.7093C15.6054 55.5544 15.7327 55.4049 15.86 55.2611C16.2695 54.7962 16.6735 54.3369 16.7675 53.7227C16.6403 53.5898 16.4244 53.5345 16.2086 53.4736C15.4892 53.2744 14.7809 53.0863 14.7587 51.6309V51.4206C14.7587 50.9945 14.7477 50.7786 14.72 50.6956C14.7034 50.6458 14.5817 50.5684 14.3548 50.4079L14.2662 50.3525C13.818 50.0371 13.5966 49.5335 13.5302 48.9691C13.4472 48.2995 13.5634 47.5358 13.7129 46.9824C13.7571 46.8053 13.8899 46.6781 14.0615 46.6283C19.0309 45.2337 22.2405 45.6875 24.8027 46.0583C24.9134 46.0749 25.024 46.0859 25.1237 46.1025C22.6168 44.138 20.3479 40.9616 18.638 37.6081C16.8284 34.0719 15.6386 30.3311 15.4394 27.625C13.8346 30.8678 10.9515 36.0641 2.97164 40.3086C2.96057 40.3086 2.95504 40.3197 2.94397 40.3197L2.87756 40.3473C2.79456 40.3861 2.78349 40.3805 2.76689 40.4027C2.76689 40.4303 2.78902 40.4303 2.76689 40.4801C2.76689 40.4912 2.77242 40.458 2.70048 40.6296C2.64514 40.7458 2.5566 40.8288 2.45699 40.8786L2.44592 40.8896ZM23.2809 37.3037C23.4469 38.5212 22.5504 40.873 21.8199 41.0114C23.4358 43.3245 25.2841 45.2725 27.221 46.3128C27.3317 46.3073 27.4202 46.3073 27.5143 46.2907C27.6858 46.2575 27.8463 46.1966 28.0179 46.0527C28.361 45.5879 28.527 44.9238 28.5546 44.1048C28.6155 41.5924 27.2819 37.8405 25.417 34.3099C23.5576 30.7738 21.1725 27.4811 19.1526 25.8874C18.4111 25.3063 17.736 24.9632 17.2047 24.9577C17.0664 24.9577 16.9889 24.9577 16.9502 24.9854C16.9114 25.0075 16.845 25.0794 16.7509 25.2012C16.7067 25.2565 16.6569 25.3229 16.6071 25.4004C16.6015 25.4225 16.6015 25.4281 16.596 25.4502C16.0039 27.2764 16.7841 30.9232 18.3945 34.7305C19.1582 34.238 22.8658 34.166 23.292 37.2982L23.2809 37.3037ZM27.304 47.3034C27.1989 47.3366 27.0937 47.3421 26.9775 47.2979C26.889 47.2923 26.7893 47.2868 26.6897 47.2757C26.0312 47.2259 25.3727 47.1374 24.6643 47.0378C22.2516 46.6947 19.219 46.2575 14.6038 47.5081C14.5153 47.9287 14.4599 48.4212 14.5097 48.8473C14.554 49.1572 14.6481 49.4118 14.8307 49.5446L14.9192 49.5999C15.3121 49.8711 15.5114 50.0039 15.6386 50.3138C15.7548 50.5739 15.7548 50.8617 15.7604 51.415V51.6253C15.7659 52.3281 16.1256 52.4277 16.4798 52.5273C16.9446 52.6546 17.4039 52.7764 17.7028 53.3519C17.7526 53.4349 17.7747 53.529 17.7747 53.6396C17.7194 54.68 17.1604 55.3109 16.6015 55.9307C16.4798 56.0635 16.3525 56.2129 16.2418 56.3457L16.2142 56.3789C14.9912 57.6628 14.0061 57.4857 13.165 56.6888C12.5618 56.1188 12.0914 55.2113 11.6377 54.3701C11.5989 54.2982 11.5602 54.2207 11.4495 54.0215C10.7688 52.7487 10.1767 51.1549 9.56246 49.5169L9.50159 49.3454C9.3245 49.4284 9.13635 49.5059 8.95927 49.5889C8.59404 49.7549 8.23987 49.9154 7.90784 50.0814C7.85803 50.098 7.8359 50.1201 7.81376 50.1312C7.59241 50.2529 7.50387 50.3138 7.28251 50.2419C5.3512 51.1107 3.52503 50.3636 2.1803 48.9414C1.62691 48.3548 1.151 47.6465 0.791301 46.8939C0.4316 46.1413 0.182577 45.3333 0.0608321 44.5475C-0.215861 42.6716 0.265585 40.9062 1.84827 40.0928C1.90914 39.9434 1.94788 39.8714 2.04195 39.7663C2.1471 39.6556 2.24117 39.6113 2.42379 39.5062L2.49019 39.4785C2.50126 39.4785 2.5068 39.4674 2.5068 39.4674C10.708 35.1123 13.331 29.7113 14.8307 26.6344C15.2457 25.7767 15.5778 25.096 15.943 24.6201C16.1201 24.3877 16.2584 24.2383 16.4632 24.1331C16.6679 24.028 16.8893 23.9837 17.1992 23.9948C17.9739 24.0059 18.8317 24.4264 19.7448 25.1403C21.8753 26.8171 24.3545 30.2259 26.2692 33.8727C28.1949 37.5306 29.5839 41.4541 29.5175 44.1436C29.4899 45.1895 29.2574 46.0693 28.7483 46.7057C28.7317 46.7279 28.7151 46.75 28.6875 46.7611C28.3499 47.0654 28.0179 47.2093 27.6582 47.2702C27.5309 47.2868 27.4036 47.3034 27.2874 47.3089L27.304 47.3034ZM37.3037 11.859L40.5631 8.8265C40.4967 8.70475 40.4469 8.57194 40.4082 8.43913C40.0429 7.22721 40.7347 5.94889 41.9466 5.58366C43.1585 5.21842 44.4368 5.91016 44.802 7.12207C45.1673 8.33398 44.4755 9.6123 43.2636 9.97754C42.7822 10.1214 42.2952 10.0993 41.8525 9.94987L38.427 13.1374C38.4381 13.1761 38.4547 13.2148 38.4658 13.2536C38.4879 13.32 38.5045 13.3864 38.5156 13.4583L42.76 14.1777C43.0423 13.6963 43.5016 13.3089 44.0826 13.1374C45.2946 12.7721 46.5729 13.4639 46.9381 14.6758C47.3033 15.8877 46.6116 17.166 45.3997 17.5312C44.1878 17.8965 42.9095 17.2048 42.5442 15.9928C42.5332 15.9486 42.5166 15.8988 42.5055 15.8545L38.2112 15.1296C37.929 15.5889 37.4808 15.9486 36.9218 16.1146C35.7099 16.4798 34.4316 15.7881 34.0664 14.5762C33.7011 13.3643 34.3929 12.0859 35.6048 11.7207C36.1969 11.5326 36.8001 11.6045 37.3037 11.859ZM57.9781 36.7669L60.7838 36.4072C61.636 36.2966 62.4274 36.9053 62.538 37.763L62.8922 40.5078C63.0029 41.3656 62.3942 42.1514 61.5364 42.262L60.33 42.417C60.5901 43.0811 60.8779 43.6676 61.5918 44.1491C60.33 43.9941 59.3063 43.485 58.4928 42.6494L58.2825 42.6771C58.1995 42.6882 58.1165 42.6937 58.028 42.6937C58.443 42.262 58.7031 41.7474 58.6367 41.2383L58.4873 40.0928L58.3545 39.0579L58.1331 37.348C58.1054 37.1432 58.0501 36.9495 57.9781 36.7669ZM50.1865 36.54L54.5306 35.9811C55.7148 35.8317 56.805 36.6729 56.9599 37.8571L57.3584 40.9616C57.4414 41.5924 57.0706 42.2012 56.5338 42.6605C56.0358 43.0866 55.3717 43.402 54.8183 43.474L54.7741 43.4795C54.4476 44.0163 54.0436 44.4922 53.5677 44.9017C53.042 45.3555 52.4222 45.7262 51.7138 46.0029C51.581 46.0527 51.4261 46.0361 51.3099 45.931C51.1438 45.7871 51.1272 45.5381 51.2711 45.3721C51.5533 45.0456 51.7249 44.7246 51.8411 44.3981C51.902 44.2155 51.9518 44.0273 51.985 43.8337L51.1383 43.9443C50.5462 44.0218 49.9762 43.8503 49.539 43.5072C49.1018 43.1696 48.792 42.6605 48.7145 42.0684L48.316 38.9639C48.1611 37.7852 49.0022 36.695 50.1865 36.54Z" fill="#00B6B6"/>
</g>
<defs>
<clipPath id="clip0_2_277">
<rect width="68" height="57.3141" fill="white"/>
</clipPath>
</defs>
</svg>
