<svg width="64" height="64" viewBox="0 0 64 64" fill="none" xmlns="http://www.w3.org/2000/svg">
<path d="M55.04 49.1712C54.5121 49.173 53.9891 49.2728 53.4976 49.4656L45.1776 41.0176L43.7248 42.4512L51.7888 50.656C51.1476 51.3972 50.7792 52.3355 50.7448 53.315C50.7104 54.2944 51.0121 55.2562 51.5998 56.0406C52.1874 56.8249 53.0257 57.3847 53.9754 57.6268C54.9251 57.869 55.929 57.7791 56.8205 57.3719C57.7121 56.9648 58.4375 56.2649 58.8763 55.3886C59.3152 54.5123 59.4411 53.5122 59.2332 52.5544C59.0252 51.5967 58.4959 50.7388 57.7332 50.1234C56.9704 49.508 56.0201 49.172 55.04 49.1712Z" fill="#00B6B6"/>
<path d="M33.92 18.9568C31.3729 18.9555 28.8827 19.7097 26.7643 21.1238C24.6459 22.538 22.9944 24.5486 22.0188 26.9014C21.0432 29.2542 20.7873 31.8435 21.2834 34.3418C21.7796 36.8401 23.0055 39.1351 24.8061 40.9366C26.6067 42.7381 28.9011 43.9651 31.3991 44.4625C33.8971 44.9599 36.4866 44.7053 38.8399 43.7308C41.1932 42.7564 43.2046 41.106 44.6198 38.9882C46.035 36.8705 46.7904 34.3807 46.7904 31.8336C46.787 28.4206 45.4301 25.1483 43.0174 22.7343C40.6046 20.3204 37.333 18.9619 33.92 18.9568ZM34.3296 30.9376C37.2096 31.2064 39.4496 33.4144 39.4496 36.0576C39.4071 37.2177 38.9844 38.3317 38.2466 39.228C37.5088 40.1242 36.4968 40.7531 35.3664 41.0176V42.72H33.408V41.2864C30.3936 41.1392 27.9808 38.8864 27.9808 36.1216H29.9456C29.9456 37.8944 31.6416 39.3216 33.7216 39.3216C35.8016 39.3216 37.4912 37.8816 37.4912 36.1216C37.4912 34.3616 35.7952 32.9216 33.7216 32.9216C30.9568 32.6464 28.7936 30.528 28.7936 27.9552C28.7936 25.4848 30.7968 23.4304 33.408 23.0336V20.9216H35.3728V23.04C37.9328 23.488 39.8528 25.5168 39.8528 27.9424H37.8816C37.8816 26.272 36.2816 24.9152 34.3232 24.9152C32.3648 24.9152 30.7584 26.24 30.7584 27.9104C30.7584 29.5808 32.3584 30.9376 34.3232 30.9376H34.3296Z" fill="#00B6B6"/>
<path d="M18.56 10.5216C19.0511 10.5195 19.5382 10.4329 20 10.2656L19.8848 10.3424L26.0352 19.84L27.7504 18.7264L21.6192 9.25439C22.3175 8.54675 22.749 7.61906 22.8404 6.62913C22.9319 5.63919 22.6775 4.64815 22.1207 3.8246C21.5638 3.00104 20.7389 2.39583 19.7861 2.11191C18.8334 1.828 17.8117 1.88292 16.8949 2.26733C15.978 2.65174 15.2227 3.3419 14.7574 4.22041C14.292 5.09892 14.1454 6.11151 14.3424 7.08594C14.5394 8.06037 15.0679 8.93645 15.838 9.56516C16.6081 10.1939 17.5722 10.5364 18.5664 10.5344L18.56 10.5216Z" fill="#00B6B6"/>
<path d="M57.504 5.37601C56.3634 5.37601 55.2694 5.82913 54.4629 6.63568C53.6563 7.44224 53.2032 8.53616 53.2032 9.67681C53.2047 10.4644 53.4264 11.2358 53.8432 11.904L43.7312 21.3248L45.1328 22.8224L55.2832 13.3504C55.8502 13.6914 56.4883 13.8968 57.1478 13.9506C57.8072 14.0044 58.4702 13.905 59.0849 13.6603C59.6996 13.4156 60.2495 13.0322 60.6916 12.5399C61.1337 12.0477 61.4561 11.4599 61.6336 10.8225C61.8111 10.1851 61.839 9.51533 61.7149 8.86542C61.5909 8.2155 61.3184 7.60303 60.9186 7.0758C60.5189 6.54857 60.0027 6.12084 59.4104 5.82599C58.8181 5.53114 58.1656 5.37714 57.504 5.37601Z" fill="#00B6B6"/>
<path d="M19.4496 31.8784V29.8304H10.7008C10.4792 28.8027 9.88885 27.8918 9.04133 27.2698C8.1938 26.6477 7.14779 26.3577 6.10095 26.4544C5.05411 26.5511 4.07895 27.0279 3.35974 27.7947C2.64053 28.5615 2.22709 29.5652 2.19753 30.6161C2.16798 31.6669 2.52436 32.6922 3.19933 33.4982C3.87431 34.3042 4.82112 34.8351 5.86087 34.9905C6.90062 35.1459 7.96128 34.9151 8.84243 34.3417C9.72358 33.7683 10.3642 32.892 10.6432 31.8784H19.4496Z" fill="#00B6B6"/>
<path d="M26.0096 44.0192L20.48 53.696C20.0509 53.5523 19.6014 53.4788 19.1488 53.4784C18.1521 53.4796 17.1865 53.826 16.4163 54.4586C15.646 55.0913 15.1187 55.9711 14.9238 56.9486C14.7289 57.9262 14.8786 58.941 15.3473 59.8206C15.8161 60.7003 16.575 61.3904 17.4951 61.7738C18.4151 62.1571 19.4396 62.21 20.3942 61.9235C21.3489 61.6369 22.1749 61.0286 22.7317 60.202C23.2886 59.3753 23.542 58.3813 23.4489 57.3889C23.3557 56.3965 22.9218 55.467 22.2208 54.7584L27.808 45.0176L26.0096 44.0192Z" fill="#00B6B6"/>
</svg>
